HIERARCHY
ROOT Hips
{
	OFFSET 0.000000 0.000000 0.000000
	CHANNELS 6 Xposition Yposition Zposition Zrotation Yrotation Xrotation 
	JOINT LowerBack
	{
		OFFSET 0.000000 0.000000 0.000000
		CHANNELS 3 Zrotation Yrotation Xrotation
		JOINT Spine
		{
			OFFSET 0.028270 2.035590 -0.193380
			CHANNELS 3 Zrotation Yrotation Xrotation
			JOINT Spine1
			{
				OFFSET 0.056720 2.048850 -0.042750
				CHANNELS 3 Zrotation Yrotation Xrotation
				JOINT Neck
				{
					OFFSET 0.000000 0.000000 0.000000
					CHANNELS 3 Zrotation Yrotation Xrotation
					JOINT Neck1
					{
						OFFSET -0.054170 1.746240 0.172020
						CHANNELS 3 Zrotation Yrotation Xrotation
						JOINT Head
						{
							OFFSET 0.104070 1.761360 -0.123970
							CHANNELS 3 Zrotation Yrotation Xrotation
							End Site
							{
								OFFSET 0.000000 0.000000 0.000000
							}
						}
					}
				}
				JOINT LeftShoulder
				{
					OFFSET 0.000000 0.000000 0.000000
					CHANNELS 3 Zrotation Yrotation Xrotation
					JOINT LeftArm
					{
						OFFSET 3.362410 1.200890 -0.311210
						CHANNELS 3 Zrotation Yrotation Xrotation
						JOINT LeftForeArm
						{
							OFFSET 4.983000 -0.000000 -0.000000
							CHANNELS 3 Zrotation Yrotation Xrotation
							JOINT LeftHand
							{
								OFFSET 3.483560 -0.000000 -0.000000
								CHANNELS 3 Zrotation Yrotation Xrotation
								JOINT LeftFingerBase
								{
									OFFSET 0.000000 0.000000 0.000000
									CHANNELS 3 Zrotation Yrotation Xrotation
									JOINT LeftHandIndex1
									{
										OFFSET 0.715260 -0.000000 -0.000000
										CHANNELS 3 Zrotation Yrotation Xrotation
										End Site
										{
											OFFSET 0.000000 0.000000 0.000000
										}
									}
								}
								JOINT LThumb
								{
									OFFSET 0.000000 0.000000 0.000000
									CHANNELS 3 Zrotation Yrotation Xrotation
									End Site
									{
										OFFSET 0.000000 0.000000 0.000000
									}
								}
							}
						}
					}
				}
				JOINT RightShoulder
				{
					OFFSET 0.000000 0.000000 0.000000
					CHANNELS 3 Zrotation Yrotation Xrotation
					JOINT RightArm
					{
						OFFSET -3.136600 1.374050 -0.404650
						CHANNELS 3 Zrotation Yrotation Xrotation
						JOINT RightForeArm
						{
							OFFSET -5.241900 -0.000000 -0.000000
							CHANNELS 3 Zrotation Yrotation Xrotation
							JOINT RightHand
							{
								OFFSET -3.444170 -0.000000 -0.000000
								CHANNELS 3 Zrotation Yrotation Xrotation
								JOINT RightFingerBase
								{
									OFFSET 0.000000 0.000000 0.000000
									CHANNELS 3 Zrotation Yrotation Xrotation
									JOINT RightHandIndex1
									{
										OFFSET -0.622530 -0.000000 -0.000000
										CHANNELS 3 Zrotation Yrotation Xrotation
										End Site
										{
											OFFSET 0.000000 0.000000 0.000000
										}
									}
								}
								JOINT RThumb
								{
									OFFSET 0.000000 0.000000 0.000000
									CHANNELS 3 Zrotation Yrotation Xrotation
									End Site
									{
										OFFSET 0.000000 0.000000 0.000000
									}
								}
							}
						}
					}
				}
			}
		}
	}
}
}
MOTION
Frames: 15
Frame Time: 0.008333
-1.541231 16.834362 -1.190278 4.235024 73.895110 17.965838 -2.061728 0.742483 -6.023426 -1.488279 0.610945 -4.357506 -7.411372 0.423280 -0.671687 10.947795 -0.845990 -4.843925 -4.685864 -0.391414 0.724425 0.000000 0.000000 0.000000 -5.632338 8.995738 2.315575 -69.067360 9.227174 12.041792 -3.418596 -15.169769 -0.002836 2.092450 4.344917 0.082208 -0.055360 -0.036862 -0.000000 0.000000 0.000000 0.000000 0.000000 0.000000 0.000000 21.226498 4.925217 0.113498 76.655932 22.032848 22.143494 2.326301 34.968634 0.011446 1.637090 8.590385 0.125912 0.019416 -0.231776 0.000000 0.000000 0.000000 0.000000 0.000000 0.000000 0.000000 
-1.392520 16.845774 -1.156251 5.597947 73.152850 19.185317 -2.637150 0.627632 -5.994902 -1.600274 0.549555 -4.356908 -7.465865 0.354952 -0.675680 11.165220 -0.838588 -4.853496 -4.732207 -0.394680 0.716830 0.000000 0.000000 0.000000 -5.459310 8.909439 2.294571 -68.779010 9.036522 12.451410 -3.435626 -15.464022 -0.002855 2.084040 4.302511 0.081115 -0.056470 -0.037268 -0.000000 0.000000 0.000000 0.000000 0.000000 0.000000 0.000000 21.697068 4.848404 0.145780 76.794729 21.257521 21.775877 2.333290 34.243365 0.011213 1.622422 8.627791 0.125196 0.019133 -0.227771 0.000000 0.000000 0.000000 0.000000 0.000000 0.000000 0.000000 
-1.246954 16.860482 -1.122414 6.804119 72.390107 20.242069 -3.185620 0.513145 -5.949615 -1.706281 0.486643 -4.352563 -7.514472 0.285749 -0.678653 11.356350 -0.829934 -4.854345 -4.772445 -0.397523 0.711574 0.000000 0.000000 0.000000 -5.304904 8.798637 2.273141 -68.478426 8.803330 12.867668 -3.453303 -15.748183 -0.002917 2.060807 4.276355 0.079823 -0.057704 -0.037426 -0.000000 0.000000 0.000000 0.000000 0.000000 0.000000 0.000000 22.108591 4.759426 0.173374 76.962304 20.472328 21.284373 2.340711 33.426058 0.010870 1.568388 8.660394 0.121377 0.019273 -0.223169 0.000000 0.000000 0.000000 0.000000 0.000000 0.000000 0.000000 
-1.104856 16.878070 -1.089402 7.832914 71.601032 21.123832 -3.692690 0.403198 -5.891905 -1.803502 0.424791 -4.345370 -7.555864 0.218321 -0.680661 11.513912 -0.818906 -4.846839 -4.805590 -0.399874 0.708759 0.000000 0.000000 0.000000 -5.174079 8.662026 2.251627 -68.170140 8.529613 13.279651 -3.471143 -16.022828 -0.003015 2.024572 4.265467 0.078331 -0.059042 -0.037314 -0.000000 0.000000 0.000000 0.000000 0.000000 0.000000 0.000000 22.448057 4.661384 0.197807 77.153564 19.686193 20.673057 2.349212 32.523056 0.010436 1.476901 8.680041 0.114355 0.019854 -0.217923 0.000000 0.000000 0.000000 0.000000 0.000000 0.000000 0.000000 
-0.966356 16.898100 -1.057837 8.659071 70.779487 21.813899 -4.142426 0.301830 -5.827224 -1.888886 0.366330 -4.336217 -7.589313 0.155056 -0.680708 11.632964 -0.803187 -4.832929 -4.831171 -0.401686 0.708046 0.000000 0.000000 0.000000 -5.070095 8.507028 2.230278 -67.857804 8.211201 13.684289 -3.488468 -16.286476 -0.003147 1.979152 4.267278 0.076641 -0.060467 -0.036903 -0.000000 0.000000 0.000000 0.000000 0.000000 0.000000 0.000000 22.707223 4.559809 0.220562 77.359418 18.907681 19.950646 2.359667 31.545308 0.009943 1.355721 8.677456 0.104733 0.020832 -0.212009 0.000000 0.000000 0.000000 0.000000 0.000000 0.000000 0.000000 
-0.831523 16.920068 -1.028148 9.282259 69.920092 22.316461 -4.528277 0.210840 -5.758032 -1.961169 0.312347 -4.325378 -7.614801 0.097054 -0.677742 11.712669 -0.780452 -4.815033 -4.849456 -0.402955 0.708844 0.000000 0.000000 0.000000 -4.992599 8.342851 2.209790 -67.543456 7.843631 14.080490 -3.504984 -16.537727 -0.003307 1.929350 4.278612 0.075052 -0.061975 -0.036169 -0.000000 0.000000 0.000000 0.000000 0.000000 0.000000 0.000000 22.886285 4.460072 0.243317 77.567783 18.145249 19.131519 2.372771 30.507149 0.009425 1.216252 8.642924 0.093407 0.022118 -0.205442 0.000000 0.000000 0.000000 0.000000 0.000000 0.000000 0.000000 
-0.700347 16.943529 -1.000625 9.692347 69.019545 22.624414 -4.839859 0.131824 -5.685715 -2.018424 0.263439 -4.312723 -7.633027 0.044988 -0.669869 11.754301 -0.748095 -4.796810 -4.861224 -0.403699 0.710196 0.000000 0.000000 0.000000 -4.940909 8.185825 2.190678 -67.226963 7.416147 14.475669 -3.520253 -16.772511 -0.003486 1.880763 4.295502 0.073564 -0.063570 -0.035079 -0.000000 0.000000 0.000000 0.000000 0.000000 0.000000 0.000000 22.989870 4.368449 0.267306 77.763210 17.406346 18.233609 2.389469 29.425825 0.008926 1.073778 8.567407 0.081379 0.023597 -0.198262 0.000000 0.000000 0.000000 0.000000 0.000000 0.000000 0.000000 
-0.572684 16.968086 -0.975489 9.891583 68.077554 22.739236 -5.070706 0.066055 -5.610376 -2.059703 0.220223 -4.300471 -7.646171 -0.000866 -0.666119 11.761256 -0.711091 -4.771776 -4.868403 -0.404173 0.714132 0.000000 0.000000 0.000000 -4.917765 7.981219 2.174423 -66.909613 7.004189 14.791120 -3.534008 -17.034595 -0.003668 1.837709 4.317353 0.072377 -0.065130 -0.033828 -0.000000 0.000000 0.000000 0.000000 0.000000 0.000000 0.000000 23.030571 4.279493 0.300166 77.926492 16.699726 17.302205 2.411006 28.308467 0.008469 0.933328 8.450154 0.069551 0.025301 -0.190618 0.000000 0.000000 0.000000 0.000000 0.000000 0.000000 0.000000 
-0.448548 16.993301 -0.952179 9.941392 67.095801 22.716566 -5.242002 0.007004 -5.526210 -2.088881 0.178329 -4.283758 -7.654898 -0.044403 -0.651190 11.745934 -0.661027 -4.756389 -4.872006 -0.404203 0.715480 0.000000 0.000000 0.000000 -4.902752 7.831812 2.161284 -66.584285 6.490440 15.146144 -3.547338 -17.258554 -0.003865 1.806567 4.336857 0.071592 -0.066880 -0.032126 -0.000000 0.000000 0.000000 0.000000 0.000000 0.000000 0.000000 23.027728 4.207345 0.333740 78.046419 16.026463 16.329883 2.436390 27.190874 0.008088 0.826312 8.275659 0.060019 0.026840 -0.182514 0.000000 0.000000 0.000000 0.000000 0.000000 0.000000 0.000000 
-0.327601 17.018949 -0.931000 9.818206 66.077900 22.532029 -5.336000 -0.042842 -5.433102 -2.102974 0.138566 -4.265627 -7.661964 -0.085186 -0.637361 11.710698 -0.605201 -4.740983 -4.874013 -0.404092 0.717310 0.000000 0.000000 0.000000 -4.905329 7.664032 2.152379 -66.250353 5.975846 15.442434 -3.559414 -17.501403 -0.004055 1.789809 4.354339 0.071208 -0.068645 -0.030246 0.000000 0.000000 0.000000 0.000000 0.000000 0.000000 0.000000 22.992053 4.142820 0.376314 78.105070 15.391818 15.367976 2.467343 26.075120 0.007793 0.752553 8.052534 0.052887 0.028342 -0.174142 -0.000000 0.000000 0.000000 0.000000 0.000000 0.000000 0.000000 
-0.209658 17.044787 -0.911467 9.571567 65.029555 22.228609 -5.369407 -0.088394 -5.326098 -2.105247 0.097701 -4.243868 -7.668875 -0.126304 -0.619515 11.666384 -0.543144 -4.731793 -4.875693 -0.403839 0.717558 0.000000 0.000000 0.000000 -4.913198 7.513138 2.148108 -65.901111 5.422771 15.725570 -3.571110 -17.740690 -0.004243 1.790334 4.365964 0.071525 -0.070527 -0.028124 0.000000 0.000000 0.000000 0.000000 0.000000 0.000000 0.000000 22.942006 4.087715 0.424711 78.092780 14.796042 14.425685 2.503306 24.983542 0.007590 0.727679 7.779683 0.049255 0.029633 -0.165593 -0.000000 0.000000 0.000000 0.000000 0.000000 0.000000 0.000000 
-0.094551 17.070621 -0.893200 9.239261 63.958059 21.837676 -5.354847 -0.132992 -5.202303 -2.098316 0.053597 -4.219120 -7.677516 -0.170142 -0.602761 11.621178 -0.480876 -4.724937 -4.878514 -0.403608 0.717262 0.000000 0.000000 0.000000 -4.920941 7.346488 2.149397 -65.532766 4.876398 15.954002 -3.583057 -17.998505 -0.004424 1.807582 4.371589 0.072345 -0.072486 -0.025901 0.000000 0.000000 0.000000 0.000000 0.000000 0.000000 0.000000 22.893675 4.033591 0.481425 78.001058 14.239994 13.532302 2.543987 23.924227 0.007473 0.752103 7.468041 0.048824 0.030725 -0.157035 -0.000000 0.000000 0.000000 0.000000 0.000000 0.000000 0.000000 
0.017894 17.096362 -0.875786 8.853430 62.870558 21.386551 -5.303929 -0.179459 -5.059938 -2.084544 0.004563 -4.191385 -7.689093 -0.218496 -0.588624 11.581965 -0.423092 -4.719163 -4.883268 -0.403477 0.716696 0.000000 0.000000 0.000000 -4.922816 7.153053 2.156433 -65.140665 4.354381 16.120244 -3.595653 -18.280721 -0.004596 1.839954 4.370434 0.073564 -0.074520 -0.023661 0.000000 0.000000 0.000000 0.000000 0.000000 0.000000 0.000000 22.858504 3.974150 0.546225 77.826293 13.723239 12.703278 2.588815 22.907210 0.007424 0.824829 7.130263 0.051194 0.031623 -0.148611 -0.000000 0.000000 0.000000 0.000000 0.000000 0.000000 0.000000 
0.127949 17.121903 -0.859000 8.433634 61.774172 20.893677 -5.223566 -0.229833 -4.899763 -2.065307 -0.050734 -4.160430 -7.704170 -0.272685 -0.575623 11.552773 -0.372124 -4.715561 -4.890008 -0.403433 0.715510 0.000000 0.000000 0.000000 -4.915561 6.941252 2.168823 -64.718983 3.850364 16.242489 -3.609263 -18.579807 -0.004763 1.884712 4.360465 0.075183 -0.076667 -0.021435 0.000000 0.000000 0.000000 0.000000 0.000000 0.000000 0.000000 22.841011 3.906341 0.616651 77.568971 13.242779 11.937857 2.637273 21.943113 0.007434 0.943767 6.780042 0.055765 0.032335 -0.140429 -0.000000 0.000000 0.000000 0.000000 0.000000 0.000000 0.000000 
0.235636 17.147116 -0.842394 8.017054 60.673610 20.391693 -5.132535 -0.287975 -4.719129 -2.044081 -0.114322 -4.123312 -7.722618 -0.334414 -0.554119 11.539458 -0.322154 -4.722334 -4.898139 -0.403290 0.711024 0.000000 0.000000 0.000000 -4.891663 6.777348 2.186017 -64.258644 3.283521 16.410541 -3.625824 -18.849577 -0.004940 1.937135 4.340033 0.076904 -0.079149 -0.019073 0.000000 0.000000 0.000000 0.000000 0.000000 0.000000 0.000000 22.845167 3.837652 0.684432 77.236151 12.792160 11.204518 2.687595 21.051225 0.007484 1.108924 6.430312 0.062337 0.032772 -0.132554 -0.000000 0.000000 0.000000 0.000000 0.000000 0.000000 0.000000 
